<?xml version="1.0" encoding="UTF-8" standalone="no"?>
<!DOCTYPE svg PUBLIC "-//W3C//DTD SVG 1.1//EN"
 "http://www.w3.org/Graphics/SVG/1.1/DTD/svg11.dtd">
<!-- Generated by graphviz version 2.47.0 (20210316.0004)
 -->
<!-- Title: dependencies Pages: 1 -->
<svg width="3013pt" height="284pt"
 viewBox="0.00 0.00 3013.00 284.00" xmlns="http://www.w3.org/2000/svg" xmlns:xlink="http://www.w3.org/1999/xlink">
<g id="graph0" class="graph" transform="scale(1 1) rotate(0) translate(4 280)">
<title>dependencies</title>
<polygon fill="white" stroke="transparent" points="-4,4 -4,-280 3009,-280 3009,4 -4,4"/>
<text text-anchor="start" x="1481.51" y="-42.4" font-family="Times-12" font-weight="bold" font-size="14.00">Legend</text>
<polygon fill="#ffffb3" stroke="transparent" points="1268.5,-10 1268.5,-30 1288.5,-30 1288.5,-10 1268.5,-10"/>
<text text-anchor="start" x="1292.13" y="-15.4" font-family="Times-12" font-size="14.00"> &#160;Declarations</text>
<polygon fill="#8dd3c7" stroke="transparent" points="1381.5,-10 1381.5,-30 1401.5,-30 1401.5,-10 1381.5,-10"/>
<text text-anchor="start" x="1405.23" y="-15.4" font-family="Times-12" font-size="14.00"> &#160;Module</text>
<polygon fill="#80b1d3" stroke="transparent" points="1467.5,-10 1467.5,-30 1487.5,-30 1487.5,-10 1467.5,-10"/>
<text text-anchor="start" x="1491.28" y="-15.4" font-family="Times-12" font-size="14.00"> &#160;Bootstrap</text>
<polygon fill="#fdb462" stroke="transparent" points="1564.5,-10 1564.5,-30 1584.5,-30 1584.5,-10 1564.5,-10"/>
<text text-anchor="start" x="1588.17" y="-15.4" font-family="Times-12" font-size="14.00"> &#160;Providers</text>
<polygon fill="#fb8072" stroke="transparent" points="1660.5,-10 1660.5,-30 1680.5,-30 1680.5,-10 1660.5,-10"/>
<text text-anchor="start" x="1684.23" y="-15.4" font-family="Times-12" font-size="14.00"> &#160;Exports</text>
<g id="clust1" class="cluster">
<title>cluster_AppModule</title>
<polygon fill="none" stroke="black" stroke-dasharray="1,5" points="8,-70 8,-268 2853,-268 2853,-70 8,-70"/>
</g>
<g id="clust2" class="cluster">
<title>cluster_AppModule_declarations</title>
<polygon fill="none" stroke="black" points="650,-78 650,-130 2845,-130 2845,-78 650,-78"/>
</g>
<g id="clust17" class="cluster">
<title>cluster_AppModule_imports</title>
<polygon fill="none" stroke="black" points="498,-78 498,-130 642,-130 642,-78 498,-78"/>
</g>
<g id="clust19" class="cluster">
<title>cluster_AppModule_bootstrap</title>
<polygon fill="none" stroke="black" points="2188,-208 2188,-260 2312,-260 2312,-208 2188,-208"/>
</g>
<g id="clust20" class="cluster">
<title>cluster_AppModule_providers</title>
<polygon fill="none" stroke="black" points="16,-78 16,-130 490,-130 490,-78 16,-78"/>
</g>
<g id="clust27" class="cluster">
<title>cluster_AppServerModule</title>
<polygon fill="none" stroke="black" stroke-dasharray="1,5" points="2861,-208 2861,-260 2997,-260 2997,-208 2861,-208"/>
</g>
<!-- AboutComponent -->
<g id="node1" class="node">
<title>AboutComponent</title>
<polygon fill="#ffffb3" stroke="black" points="2837.33,-122 2720.67,-122 2720.67,-86 2837.33,-86 2837.33,-122"/>
<text text-anchor="middle" x="2779" y="-99.8" font-family="Times,serif" font-size="14.00">AboutComponent</text>
</g>
<!-- AppModule -->
<g id="node15" class="node">
<title>AppModule</title>
<polygon fill="#8dd3c7" stroke="black" points="1684.66,-187 1681.66,-191 1660.66,-191 1657.66,-187 1601.34,-187 1601.34,-151 1684.66,-151 1684.66,-187"/>
<text text-anchor="middle" x="1643" y="-164.8" font-family="Times,serif" font-size="14.00">AppModule</text>
</g>
<!-- AboutComponent&#45;&gt;AppModule -->
<g id="edge1" class="edge">
<title>AboutComponent&#45;&gt;AppModule</title>
<path fill="none" stroke="black" d="M2779,-122.04C2779,-143.66 2779,-177 2779,-177 2779,-177 1694.78,-177 1694.78,-177"/>
<polygon fill="black" stroke="black" points="1694.78,-173.5 1684.78,-177 1694.78,-180.5 1694.78,-173.5"/>
</g>
<!-- AppComponent -->
<g id="node2" class="node">
<title>AppComponent</title>
<polygon fill="#ffffb3" stroke="black" points="2702.94,-122 2597.06,-122 2597.06,-86 2702.94,-86 2702.94,-122"/>
<text text-anchor="middle" x="2650" y="-99.8" font-family="Times,serif" font-size="14.00">AppComponent</text>
</g>
<!-- AppComponent&#45;&gt;AppModule -->
<g id="edge2" class="edge">
<title>AppComponent&#45;&gt;AppModule</title>
<path fill="none" stroke="black" d="M2650,-122.13C2650,-142.57 2650,-173 2650,-173 2650,-173 1694.67,-173 1694.67,-173"/>
<polygon fill="black" stroke="black" points="1694.67,-169.5 1684.67,-173 1694.67,-176.5 1694.67,-169.5"/>
</g>
<!-- DashboardComponent -->
<g id="node3" class="node">
<title>DashboardComponent</title>
<polygon fill="#ffffb3" stroke="black" points="2578.97,-122 2437.03,-122 2437.03,-86 2578.97,-86 2578.97,-122"/>
<text text-anchor="middle" x="2508" y="-99.8" font-family="Times,serif" font-size="14.00">DashboardComponent</text>
</g>
<!-- DashboardComponent&#45;&gt;AppModule -->
<g id="edge3" class="edge">
<title>DashboardComponent&#45;&gt;AppModule</title>
<path fill="none" stroke="black" d="M2508,-122.11C2508,-141.34 2508,-169 2508,-169 2508,-169 1694.72,-169 1694.72,-169"/>
<polygon fill="black" stroke="black" points="1694.72,-165.5 1684.72,-169 1694.72,-172.5 1694.72,-165.5"/>
</g>
<!-- EditKanbanCardComponent -->
<g id="node4" class="node">
<title>EditKanbanCardComponent</title>
<polygon fill="#ffffb3" stroke="black" points="2418.91,-122 2243.09,-122 2243.09,-86 2418.91,-86 2418.91,-122"/>
<text text-anchor="middle" x="2331" y="-99.8" font-family="Times,serif" font-size="14.00">EditKanbanCardComponent</text>
</g>
<!-- EditKanbanCardComponent&#45;&gt;AppModule -->
<g id="edge4" class="edge">
<title>EditKanbanCardComponent&#45;&gt;AppModule</title>
<path fill="none" stroke="black" d="M2273.88,-122.27C2273.88,-140.56 2273.88,-166 2273.88,-166 2273.88,-166 1694.88,-166 1694.88,-166"/>
<polygon fill="black" stroke="black" points="1694.88,-162.5 1684.88,-166 1694.88,-169.5 1694.88,-162.5"/>
</g>
<!-- EditSupplierComponent -->
<g id="node5" class="node">
<title>EditSupplierComponent</title>
<polygon fill="#ffffb3" stroke="black" points="2225.11,-122 2072.89,-122 2072.89,-86 2225.11,-86 2225.11,-122"/>
<text text-anchor="middle" x="2149" y="-99.8" font-family="Times,serif" font-size="14.00">EditSupplierComponent</text>
</g>
<!-- EditSupplierComponent&#45;&gt;AppModule -->
<g id="edge5" class="edge">
<title>EditSupplierComponent&#45;&gt;AppModule</title>
<path fill="none" stroke="black" d="M2134.24,-122.03C2134.24,-139.06 2134.24,-162 2134.24,-162 2134.24,-162 1694.88,-162 1694.88,-162"/>
<polygon fill="black" stroke="black" points="1694.88,-158.5 1684.88,-162 1694.88,-165.5 1694.88,-158.5"/>
</g>
<!-- KanbanComponent -->
<g id="node6" class="node">
<title>KanbanComponent</title>
<polygon fill="#ffffb3" stroke="black" points="2055.37,-122 1930.63,-122 1930.63,-86 2055.37,-86 2055.37,-122"/>
<text text-anchor="middle" x="1993" y="-99.8" font-family="Times,serif" font-size="14.00">KanbanComponent</text>
</g>
<!-- KanbanComponent&#45;&gt;AppModule -->
<g id="edge6" class="edge">
<title>KanbanComponent&#45;&gt;AppModule</title>
<path fill="none" stroke="black" d="M1993,-122.01C1993,-138.05 1993,-159 1993,-159 1993,-159 1694.87,-159 1694.87,-159"/>
<polygon fill="black" stroke="black" points="1694.87,-155.5 1684.87,-159 1694.87,-162.5 1694.87,-155.5"/>
</g>
<!-- LoginComponent -->
<g id="node7" class="node">
<title>LoginComponent</title>
<polygon fill="#ffffb3" stroke="black" points="1912.28,-122 1797.72,-122 1797.72,-86 1912.28,-86 1912.28,-122"/>
<text text-anchor="middle" x="1855" y="-99.8" font-family="Times,serif" font-size="14.00">LoginComponent</text>
</g>
<!-- LoginComponent&#45;&gt;AppModule -->
<g id="edge7" class="edge">
<title>LoginComponent&#45;&gt;AppModule</title>
<path fill="none" stroke="black" d="M1855,-122.12C1855,-136.78 1855,-155 1855,-155 1855,-155 1694.88,-155 1694.88,-155"/>
<polygon fill="black" stroke="black" points="1694.88,-151.5 1684.88,-155 1694.88,-158.5 1694.88,-151.5"/>
</g>
<!-- NavbarComponent -->
<g id="node8" class="node">
<title>NavbarComponent</title>
<polygon fill="#ffffb3" stroke="black" points="1779.03,-122 1656.97,-122 1656.97,-86 1779.03,-86 1779.03,-122"/>
<text text-anchor="middle" x="1718" y="-99.8" font-family="Times,serif" font-size="14.00">NavbarComponent</text>
</g>
<!-- NavbarComponent&#45;&gt;AppModule -->
<g id="edge8" class="edge">
<title>NavbarComponent&#45;&gt;AppModule</title>
<path fill="none" stroke="black" d="M1670.78,-122.11C1670.78,-122.11 1670.78,-140.99 1670.78,-140.99"/>
<polygon fill="black" stroke="black" points="1667.28,-140.99 1670.78,-150.99 1674.28,-140.99 1667.28,-140.99"/>
</g>
<!-- NewOrderComponent -->
<g id="node9" class="node">
<title>NewOrderComponent</title>
<polygon fill="#ffffb3" stroke="black" points="1639.4,-122 1498.6,-122 1498.6,-86 1639.4,-86 1639.4,-122"/>
<text text-anchor="middle" x="1569" y="-99.8" font-family="Times,serif" font-size="14.00">NewOrderComponent</text>
</g>
<!-- NewOrderComponent&#45;&gt;AppModule -->
<g id="edge9" class="edge">
<title>NewOrderComponent&#45;&gt;AppModule</title>
<path fill="none" stroke="black" d="M1620.19,-122.11C1620.19,-122.11 1620.19,-140.99 1620.19,-140.99"/>
<polygon fill="black" stroke="black" points="1616.69,-140.99 1620.19,-150.99 1623.69,-140.99 1616.69,-140.99"/>
</g>
<!-- OrderComponent -->
<g id="node10" class="node">
<title>OrderComponent</title>
<polygon fill="#ffffb3" stroke="black" points="1480.97,-122 1367.03,-122 1367.03,-86 1480.97,-86 1480.97,-122"/>
<text text-anchor="middle" x="1424" y="-99.8" font-family="Times,serif" font-size="14.00">OrderComponent</text>
</g>
<!-- OrderComponent&#45;&gt;AppModule -->
<g id="edge10" class="edge">
<title>OrderComponent&#45;&gt;AppModule</title>
<path fill="none" stroke="black" d="M1424,-122.12C1424,-136.78 1424,-155 1424,-155 1424,-155 1591.29,-155 1591.29,-155"/>
<polygon fill="black" stroke="black" points="1591.29,-158.5 1601.29,-155 1591.29,-151.5 1591.29,-158.5"/>
</g>
<!-- OrderCreatedSuccessfullyComponent -->
<g id="node11" class="node">
<title>OrderCreatedSuccessfullyComponent</title>
<polygon fill="#ffffb3" stroke="black" points="1349.26,-122 1120.74,-122 1120.74,-86 1349.26,-86 1349.26,-122"/>
<text text-anchor="middle" x="1235" y="-99.8" font-family="Times,serif" font-size="14.00">OrderCreatedSuccessfullyComponent</text>
</g>
<!-- OrderCreatedSuccessfullyComponent&#45;&gt;AppModule -->
<g id="edge11" class="edge">
<title>OrderCreatedSuccessfullyComponent&#45;&gt;AppModule</title>
<path fill="none" stroke="black" d="M1235,-122.01C1235,-138.05 1235,-159 1235,-159 1235,-159 1591.25,-159 1591.25,-159"/>
<polygon fill="black" stroke="black" points="1591.25,-162.5 1601.25,-159 1591.25,-155.5 1591.25,-162.5"/>
</g>
<!-- SignupComponent -->
<g id="node12" class="node">
<title>SignupComponent</title>
<polygon fill="#ffffb3" stroke="black" points="1102.51,-122 981.49,-122 981.49,-86 1102.51,-86 1102.51,-122"/>
<text text-anchor="middle" x="1042" y="-99.8" font-family="Times,serif" font-size="14.00">SignupComponent</text>
</g>
<!-- SignupComponent&#45;&gt;AppModule -->
<g id="edge12" class="edge">
<title>SignupComponent&#45;&gt;AppModule</title>
<path fill="none" stroke="black" d="M1042,-122.03C1042,-139.06 1042,-162 1042,-162 1042,-162 1591.22,-162 1591.22,-162"/>
<polygon fill="black" stroke="black" points="1591.22,-165.5 1601.22,-162 1591.22,-158.5 1591.22,-165.5"/>
</g>
<!-- SuppliersComponent -->
<g id="node13" class="node">
<title>SuppliersComponent</title>
<polygon fill="#ffffb3" stroke="black" points="963.22,-122 828.78,-122 828.78,-86 963.22,-86 963.22,-122"/>
<text text-anchor="middle" x="896" y="-99.8" font-family="Times,serif" font-size="14.00">SuppliersComponent</text>
</g>
<!-- SuppliersComponent&#45;&gt;AppModule -->
<g id="edge13" class="edge">
<title>SuppliersComponent&#45;&gt;AppModule</title>
<path fill="none" stroke="black" d="M896,-122.27C896,-140.56 896,-166 896,-166 896,-166 1591.24,-166 1591.24,-166"/>
<polygon fill="black" stroke="black" points="1591.24,-169.5 1601.24,-166 1591.24,-162.5 1591.24,-169.5"/>
</g>
<!-- UserSettingsComponent -->
<g id="node14" class="node">
<title>UserSettingsComponent</title>
<polygon fill="#ffffb3" stroke="black" points="810.37,-122 657.63,-122 657.63,-86 810.37,-86 810.37,-122"/>
<text text-anchor="middle" x="734" y="-99.8" font-family="Times,serif" font-size="14.00">UserSettingsComponent</text>
</g>
<!-- UserSettingsComponent&#45;&gt;AppModule -->
<g id="edge14" class="edge">
<title>UserSettingsComponent&#45;&gt;AppModule</title>
<path fill="none" stroke="black" d="M734,-122.11C734,-141.34 734,-169 734,-169 734,-169 1591.28,-169 1591.28,-169"/>
<polygon fill="black" stroke="black" points="1591.28,-172.5 1601.28,-169 1591.28,-165.5 1591.28,-172.5"/>
</g>
<!-- AppComponent  -->
<g id="node17" class="node">
<title>AppComponent </title>
<polygon fill="#80b1d3" stroke="black" points="2304.44,-252 2195.56,-252 2195.56,-216 2304.44,-216 2304.44,-252"/>
<text text-anchor="middle" x="2250" y="-229.8" font-family="Times,serif" font-size="14.00">AppComponent </text>
</g>
<!-- AppModule&#45;&gt;AppComponent  -->
<g id="edge16" class="edge">
<title>AppModule&#45;&gt;AppComponent </title>
<path fill="none" stroke="black" stroke-dasharray="1,5" d="M1684.71,-184C1815.72,-184 2210.29,-184 2210.29,-184 2210.29,-184 2210.29,-205.95 2210.29,-205.95"/>
<polygon fill="black" stroke="black" points="2206.79,-205.95 2210.29,-215.95 2213.79,-205.95 2206.79,-205.95"/>
</g>
<!-- AppServerModule -->
<g id="node21" class="node">
<title>AppServerModule</title>
<polygon fill="#8dd3c7" stroke="black" points="2989.19,-252 2986.19,-256 2965.19,-256 2962.19,-252 2868.81,-252 2868.81,-216 2989.19,-216 2989.19,-252"/>
<text text-anchor="middle" x="2929" y="-229.8" font-family="Times,serif" font-size="14.00">AppServerModule</text>
</g>
<!-- AppModule&#45;&gt;AppServerModule -->
<g id="edge20" class="edge">
<title>AppModule&#45;&gt;AppServerModule</title>
<path fill="none" stroke="black" d="M1684.69,-180C1905.57,-180 2929,-180 2929,-180 2929,-180 2929,-205.72 2929,-205.72"/>
<polygon fill="black" stroke="black" points="2925.5,-205.72 2929,-215.72 2932.5,-205.72 2925.5,-205.72"/>
</g>
<!-- AppRoutingModule -->
<g id="node16" class="node">
<title>AppRoutingModule</title>
<polygon fill="#8dd3c7" stroke="black" points="634.27,-122 631.27,-126 610.27,-126 607.27,-122 505.73,-122 505.73,-86 634.27,-86 634.27,-122"/>
<text text-anchor="middle" x="570" y="-99.8" font-family="Times,serif" font-size="14.00">AppRoutingModule</text>
</g>
<!-- AppRoutingModule&#45;&gt;AppModule -->
<g id="edge15" class="edge">
<title>AppRoutingModule&#45;&gt;AppModule</title>
<path fill="none" stroke="black" d="M570,-122.13C570,-142.57 570,-173 570,-173 570,-173 1591.27,-173 1591.27,-173"/>
<polygon fill="black" stroke="black" points="1591.27,-176.5 1601.27,-173 1591.27,-169.5 1591.27,-176.5"/>
</g>
<!-- AuthInterceptor -->
<g id="node18" class="node">
<title>AuthInterceptor</title>
<ellipse fill="#fdb462" stroke="black" cx="409" cy="-104" rx="72.91" ry="18"/>
<text text-anchor="middle" x="409" y="-99.8" font-family="Times,serif" font-size="14.00">AuthInterceptor</text>
</g>
<!-- AuthInterceptor&#45;&gt;AppModule -->
<g id="edge17" class="edge">
<title>AuthInterceptor&#45;&gt;AppModule</title>
<path fill="none" stroke="black" d="M409,-122.04C409,-143.66 409,-177 409,-177 409,-177 1591.24,-177 1591.24,-177"/>
<polygon fill="black" stroke="black" points="1591.24,-180.5 1601.24,-177 1591.24,-173.5 1591.24,-180.5"/>
</g>
<!-- AuthService -->
<g id="node19" class="node">
<title>AuthService</title>
<ellipse fill="#fdb462" stroke="black" cx="259" cy="-104" rx="59.11" ry="18"/>
<text text-anchor="middle" x="259" y="-99.8" font-family="Times,serif" font-size="14.00">AuthService</text>
</g>
<!-- AuthService&#45;&gt;AppModule -->
<g id="edge18" class="edge">
<title>AuthService&#45;&gt;AppModule</title>
<path fill="none" stroke="black" d="M259,-122.01C259,-144.49 259,-180 259,-180 259,-180 1591.2,-180 1591.2,-180"/>
<polygon fill="black" stroke="black" points="1591.2,-183.5 1601.2,-180 1591.2,-176.5 1591.2,-183.5"/>
</g>
<!-- UserStoreService -->
<g id="node20" class="node">
<title>UserStoreService</title>
<ellipse fill="#fdb462" stroke="black" cx="103" cy="-104" rx="78.7" ry="18"/>
<text text-anchor="middle" x="103" y="-99.8" font-family="Times,serif" font-size="14.00">UserStoreService</text>
</g>
<!-- UserStoreService&#45;&gt;AppModule -->
<g id="edge19" class="edge">
<title>UserStoreService&#45;&gt;AppModule</title>
<path fill="none" stroke="black" d="M103,-122.15C103,-145.76 103,-184 103,-184 103,-184 1591.01,-184 1591.01,-184"/>
<polygon fill="black" stroke="black" points="1591.01,-187.5 1601.01,-184 1591.01,-180.5 1591.01,-187.5"/>
</g>
<!-- AppServerModule&#45;&gt;AppComponent  -->
<g id="edge21" class="edge">
<title>AppServerModule&#45;&gt;AppComponent </title>
<path fill="none" stroke="black" stroke-dasharray="1,5" d="M2868.74,-234C2868.74,-234 2314.87,-234 2314.87,-234"/>
<polygon fill="black" stroke="black" points="2314.87,-230.5 2304.87,-234 2314.87,-237.5 2314.87,-230.5"/>
</g>
</g>
</svg>
