<?xml version="1.0" encoding="UTF-8" standalone="no"?>
<!DOCTYPE svg PUBLIC "-//W3C//DTD SVG 1.1//EN"
 "http://www.w3.org/Graphics/SVG/1.1/DTD/svg11.dtd">
<!-- Generated by graphviz version 2.47.0 (20210316.0004)
 -->
<!-- Title: dependencies Pages: 1 -->
<svg width="2869pt" height="284pt"
 viewBox="0.00 0.00 2869.00 284.00" xmlns="http://www.w3.org/2000/svg" xmlns:xlink="http://www.w3.org/1999/xlink">
<g id="graph0" class="graph" transform="scale(1 1) rotate(0) translate(4 280)">
<title>dependencies</title>
<polygon fill="white" stroke="transparent" points="-4,4 -4,-280 2865,-280 2865,4 -4,4"/>
<text text-anchor="start" x="1409.51" y="-42.4" font-family="Times-12" font-weight="bold" font-size="14.00">Legend</text>
<polygon fill="#ffffb3" stroke="transparent" points="1196.5,-10 1196.5,-30 1216.5,-30 1216.5,-10 1196.5,-10"/>
<text text-anchor="start" x="1220.13" y="-15.4" font-family="Times-12" font-size="14.00"> &#160;Declarations</text>
<polygon fill="#8dd3c7" stroke="transparent" points="1309.5,-10 1309.5,-30 1329.5,-30 1329.5,-10 1309.5,-10"/>
<text text-anchor="start" x="1333.23" y="-15.4" font-family="Times-12" font-size="14.00"> &#160;Module</text>
<polygon fill="#80b1d3" stroke="transparent" points="1395.5,-10 1395.5,-30 1415.5,-30 1415.5,-10 1395.5,-10"/>
<text text-anchor="start" x="1419.28" y="-15.4" font-family="Times-12" font-size="14.00"> &#160;Bootstrap</text>
<polygon fill="#fdb462" stroke="transparent" points="1492.5,-10 1492.5,-30 1512.5,-30 1512.5,-10 1492.5,-10"/>
<text text-anchor="start" x="1516.17" y="-15.4" font-family="Times-12" font-size="14.00"> &#160;Providers</text>
<polygon fill="#fb8072" stroke="transparent" points="1588.5,-10 1588.5,-30 1608.5,-30 1608.5,-10 1588.5,-10"/>
<text text-anchor="start" x="1612.23" y="-15.4" font-family="Times-12" font-size="14.00"> &#160;Exports</text>
<g id="clust1" class="cluster">
<title>cluster_AppModule</title>
<polygon fill="none" stroke="black" stroke-dasharray="1,5" points="8,-70 8,-268 2853,-268 2853,-70 8,-70"/>
</g>
<g id="clust2" class="cluster">
<title>cluster_AppModule_declarations</title>
<polygon fill="none" stroke="black" points="650,-78 650,-130 2845,-130 2845,-78 650,-78"/>
</g>
<g id="clust17" class="cluster">
<title>cluster_AppModule_imports</title>
<polygon fill="none" stroke="black" points="498,-78 498,-130 642,-130 642,-78 498,-78"/>
</g>
<g id="clust19" class="cluster">
<title>cluster_AppModule_bootstrap</title>
<polygon fill="none" stroke="black" points="1434,-208 1434,-260 1558,-260 1558,-208 1434,-208"/>
</g>
<g id="clust20" class="cluster">
<title>cluster_AppModule_providers</title>
<polygon fill="none" stroke="black" points="16,-78 16,-130 490,-130 490,-78 16,-78"/>
</g>
<!-- AboutComponent -->
<g id="node1" class="node">
<title>AboutComponent</title>
<polygon fill="#ffffb3" stroke="black" points="2837.33,-122 2720.67,-122 2720.67,-86 2837.33,-86 2837.33,-122"/>
<text text-anchor="middle" x="2779" y="-99.8" font-family="Times,serif" font-size="14.00">AboutComponent</text>
</g>
<!-- AppModule -->
<g id="node15" class="node">
<title>AppModule</title>
<polygon fill="#8dd3c7" stroke="black" points="1537.66,-187 1534.66,-191 1513.66,-191 1510.66,-187 1454.34,-187 1454.34,-151 1537.66,-151 1537.66,-187"/>
<text text-anchor="middle" x="1496" y="-164.8" font-family="Times,serif" font-size="14.00">AppModule</text>
</g>
<!-- AboutComponent&#45;&gt;AppModule -->
<g id="edge1" class="edge">
<title>AboutComponent&#45;&gt;AppModule</title>
<path fill="none" stroke="black" d="M2779,-122.32C2779,-145.66 2779,-183 2779,-183 2779,-183 1547.96,-183 1547.96,-183"/>
<polygon fill="black" stroke="black" points="1547.96,-179.5 1537.96,-183 1547.96,-186.5 1547.96,-179.5"/>
</g>
<!-- AppComponent -->
<g id="node2" class="node">
<title>AppComponent</title>
<polygon fill="#ffffb3" stroke="black" points="2702.94,-122 2597.06,-122 2597.06,-86 2702.94,-86 2702.94,-122"/>
<text text-anchor="middle" x="2650" y="-99.8" font-family="Times,serif" font-size="14.00">AppComponent</text>
</g>
<!-- AppComponent&#45;&gt;AppModule -->
<g id="edge2" class="edge">
<title>AppComponent&#45;&gt;AppModule</title>
<path fill="none" stroke="black" d="M2650,-122.16C2650,-144.35 2650,-179 2650,-179 2650,-179 1547.75,-179 1547.75,-179"/>
<polygon fill="black" stroke="black" points="1547.75,-175.5 1537.75,-179 1547.75,-182.5 1547.75,-175.5"/>
</g>
<!-- DashboardComponent -->
<g id="node3" class="node">
<title>DashboardComponent</title>
<polygon fill="#ffffb3" stroke="black" points="2578.97,-122 2437.03,-122 2437.03,-86 2578.97,-86 2578.97,-122"/>
<text text-anchor="middle" x="2508" y="-99.8" font-family="Times,serif" font-size="14.00">DashboardComponent</text>
</g>
<!-- DashboardComponent&#45;&gt;AppModule -->
<g id="edge3" class="edge">
<title>DashboardComponent&#45;&gt;AppModule</title>
<path fill="none" stroke="black" d="M2508,-122.28C2508,-143.32 2508,-175 2508,-175 2508,-175 1547.88,-175 1547.88,-175"/>
<polygon fill="black" stroke="black" points="1547.88,-171.5 1537.88,-175 1547.88,-178.5 1547.88,-171.5"/>
</g>
<!-- EditKanbanCardComponent -->
<g id="node4" class="node">
<title>EditKanbanCardComponent</title>
<polygon fill="#ffffb3" stroke="black" points="2418.91,-122 2243.09,-122 2243.09,-86 2418.91,-86 2418.91,-122"/>
<text text-anchor="middle" x="2331" y="-99.8" font-family="Times,serif" font-size="14.00">EditKanbanCardComponent</text>
</g>
<!-- EditKanbanCardComponent&#45;&gt;AppModule -->
<g id="edge4" class="edge">
<title>EditKanbanCardComponent&#45;&gt;AppModule</title>
<path fill="none" stroke="black" d="M2331,-122.31C2331,-142.15 2331,-171 2331,-171 2331,-171 1547.69,-171 1547.69,-171"/>
<polygon fill="black" stroke="black" points="1547.69,-167.5 1537.69,-171 1547.69,-174.5 1547.69,-167.5"/>
</g>
<!-- EditSupplierComponent -->
<g id="node5" class="node">
<title>EditSupplierComponent</title>
<polygon fill="#ffffb3" stroke="black" points="2225.11,-122 2072.89,-122 2072.89,-86 2225.11,-86 2225.11,-122"/>
<text text-anchor="middle" x="2149" y="-99.8" font-family="Times,serif" font-size="14.00">EditSupplierComponent</text>
</g>
<!-- EditSupplierComponent&#45;&gt;AppModule -->
<g id="edge5" class="edge">
<title>EditSupplierComponent&#45;&gt;AppModule</title>
<path fill="none" stroke="black" d="M2149,-122.22C2149,-140.83 2149,-167 2149,-167 2149,-167 1547.84,-167 1547.84,-167"/>
<polygon fill="black" stroke="black" points="1547.84,-163.5 1537.84,-167 1547.84,-170.5 1547.84,-163.5"/>
</g>
<!-- KanbanComponent -->
<g id="node6" class="node">
<title>KanbanComponent</title>
<polygon fill="#ffffb3" stroke="black" points="2055.37,-122 1930.63,-122 1930.63,-86 2055.37,-86 2055.37,-122"/>
<text text-anchor="middle" x="1993" y="-99.8" font-family="Times,serif" font-size="14.00">KanbanComponent</text>
</g>
<!-- KanbanComponent&#45;&gt;AppModule -->
<g id="edge6" class="edge">
<title>KanbanComponent&#45;&gt;AppModule</title>
<path fill="none" stroke="black" d="M1993,-122.02C1993,-139.37 1993,-163 1993,-163 1993,-163 1547.95,-163 1547.95,-163"/>
<polygon fill="black" stroke="black" points="1547.95,-159.5 1537.95,-163 1547.95,-166.5 1547.95,-159.5"/>
</g>
<!-- LoginComponent -->
<g id="node7" class="node">
<title>LoginComponent</title>
<polygon fill="#ffffb3" stroke="black" points="1912.28,-122 1797.72,-122 1797.72,-86 1912.28,-86 1912.28,-122"/>
<text text-anchor="middle" x="1855" y="-99.8" font-family="Times,serif" font-size="14.00">LoginComponent</text>
</g>
<!-- LoginComponent&#45;&gt;AppModule -->
<g id="edge7" class="edge">
<title>LoginComponent&#45;&gt;AppModule</title>
<path fill="none" stroke="black" d="M1855,-122.01C1855,-138.05 1855,-159 1855,-159 1855,-159 1547.88,-159 1547.88,-159"/>
<polygon fill="black" stroke="black" points="1547.88,-155.5 1537.88,-159 1547.88,-162.5 1547.88,-155.5"/>
</g>
<!-- NavbarComponent -->
<g id="node8" class="node">
<title>NavbarComponent</title>
<polygon fill="#ffffb3" stroke="black" points="1779.03,-122 1656.97,-122 1656.97,-86 1779.03,-86 1779.03,-122"/>
<text text-anchor="middle" x="1718" y="-99.8" font-family="Times,serif" font-size="14.00">NavbarComponent</text>
</g>
<!-- NavbarComponent&#45;&gt;AppModule -->
<g id="edge8" class="edge">
<title>NavbarComponent&#45;&gt;AppModule</title>
<path fill="none" stroke="black" d="M1718,-122.12C1718,-136.78 1718,-155 1718,-155 1718,-155 1547.76,-155 1547.76,-155"/>
<polygon fill="black" stroke="black" points="1547.76,-151.5 1537.76,-155 1547.76,-158.5 1547.76,-151.5"/>
</g>
<!-- NewOrderComponent -->
<g id="node9" class="node">
<title>NewOrderComponent</title>
<polygon fill="#ffffb3" stroke="black" points="1639.4,-122 1498.6,-122 1498.6,-86 1639.4,-86 1639.4,-122"/>
<text text-anchor="middle" x="1569" y="-99.8" font-family="Times,serif" font-size="14.00">NewOrderComponent</text>
</g>
<!-- NewOrderComponent&#45;&gt;AppModule -->
<g id="edge9" class="edge">
<title>NewOrderComponent&#45;&gt;AppModule</title>
<path fill="none" stroke="black" d="M1518.31,-122.11C1518.31,-122.11 1518.31,-140.99 1518.31,-140.99"/>
<polygon fill="black" stroke="black" points="1514.81,-140.99 1518.31,-150.99 1521.81,-140.99 1514.81,-140.99"/>
</g>
<!-- OrderComponent -->
<g id="node10" class="node">
<title>OrderComponent</title>
<polygon fill="#ffffb3" stroke="black" points="1480.97,-122 1367.03,-122 1367.03,-86 1480.97,-86 1480.97,-122"/>
<text text-anchor="middle" x="1424" y="-99.8" font-family="Times,serif" font-size="14.00">OrderComponent</text>
</g>
<!-- OrderComponent&#45;&gt;AppModule -->
<g id="edge10" class="edge">
<title>OrderComponent&#45;&gt;AppModule</title>
<path fill="none" stroke="black" d="M1467.58,-122.11C1467.58,-122.11 1467.58,-140.99 1467.58,-140.99"/>
<polygon fill="black" stroke="black" points="1464.08,-140.99 1467.58,-150.99 1471.08,-140.99 1464.08,-140.99"/>
</g>
<!-- OrderCreatedSuccessfullyComponent -->
<g id="node11" class="node">
<title>OrderCreatedSuccessfullyComponent</title>
<polygon fill="#ffffb3" stroke="black" points="1349.26,-122 1120.74,-122 1120.74,-86 1349.26,-86 1349.26,-122"/>
<text text-anchor="middle" x="1235" y="-99.8" font-family="Times,serif" font-size="14.00">OrderCreatedSuccessfullyComponent</text>
</g>
<!-- OrderCreatedSuccessfullyComponent&#45;&gt;AppModule -->
<g id="edge11" class="edge">
<title>OrderCreatedSuccessfullyComponent&#45;&gt;AppModule</title>
<path fill="none" stroke="black" d="M1235,-122.12C1235,-136.78 1235,-155 1235,-155 1235,-155 1444.07,-155 1444.07,-155"/>
<polygon fill="black" stroke="black" points="1444.07,-158.5 1454.07,-155 1444.07,-151.5 1444.07,-158.5"/>
</g>
<!-- SignupComponent -->
<g id="node12" class="node">
<title>SignupComponent</title>
<polygon fill="#ffffb3" stroke="black" points="1102.51,-122 981.49,-122 981.49,-86 1102.51,-86 1102.51,-122"/>
<text text-anchor="middle" x="1042" y="-99.8" font-family="Times,serif" font-size="14.00">SignupComponent</text>
</g>
<!-- SignupComponent&#45;&gt;AppModule -->
<g id="edge12" class="edge">
<title>SignupComponent&#45;&gt;AppModule</title>
<path fill="none" stroke="black" d="M1042,-122.01C1042,-138.05 1042,-159 1042,-159 1042,-159 1444.1,-159 1444.1,-159"/>
<polygon fill="black" stroke="black" points="1444.1,-162.5 1454.1,-159 1444.1,-155.5 1444.1,-162.5"/>
</g>
<!-- SuppliersComponent -->
<g id="node13" class="node">
<title>SuppliersComponent</title>
<polygon fill="#ffffb3" stroke="black" points="963.22,-122 828.78,-122 828.78,-86 963.22,-86 963.22,-122"/>
<text text-anchor="middle" x="896" y="-99.8" font-family="Times,serif" font-size="14.00">SuppliersComponent</text>
</g>
<!-- SuppliersComponent&#45;&gt;AppModule -->
<g id="edge13" class="edge">
<title>SuppliersComponent&#45;&gt;AppModule</title>
<path fill="none" stroke="black" d="M896,-122.02C896,-139.37 896,-163 896,-163 896,-163 1444.29,-163 1444.29,-163"/>
<polygon fill="black" stroke="black" points="1444.29,-166.5 1454.29,-163 1444.29,-159.5 1444.29,-166.5"/>
</g>
<!-- UserSettingsComponent -->
<g id="node14" class="node">
<title>UserSettingsComponent</title>
<polygon fill="#ffffb3" stroke="black" points="810.37,-122 657.63,-122 657.63,-86 810.37,-86 810.37,-122"/>
<text text-anchor="middle" x="734" y="-99.8" font-family="Times,serif" font-size="14.00">UserSettingsComponent</text>
</g>
<!-- UserSettingsComponent&#45;&gt;AppModule -->
<g id="edge14" class="edge">
<title>UserSettingsComponent&#45;&gt;AppModule</title>
<path fill="none" stroke="black" d="M734,-122.22C734,-140.83 734,-167 734,-167 734,-167 1444.22,-167 1444.22,-167"/>
<polygon fill="black" stroke="black" points="1444.22,-170.5 1454.22,-167 1444.22,-163.5 1444.22,-170.5"/>
</g>
<!-- AppComponent  -->
<g id="node17" class="node">
<title>AppComponent </title>
<polygon fill="#80b1d3" stroke="black" points="1550.44,-252 1441.56,-252 1441.56,-216 1550.44,-216 1550.44,-252"/>
<text text-anchor="middle" x="1496" y="-229.8" font-family="Times,serif" font-size="14.00">AppComponent </text>
</g>
<!-- AppModule&#45;&gt;AppComponent  -->
<g id="edge16" class="edge">
<title>AppModule&#45;&gt;AppComponent </title>
<path fill="none" stroke="black" stroke-dasharray="1,5" d="M1496,-187.11C1496,-187.11 1496,-205.99 1496,-205.99"/>
<polygon fill="black" stroke="black" points="1492.5,-205.99 1496,-215.99 1499.5,-205.99 1492.5,-205.99"/>
</g>
<!-- AppRoutingModule -->
<g id="node16" class="node">
<title>AppRoutingModule</title>
<polygon fill="#8dd3c7" stroke="black" points="634.27,-122 631.27,-126 610.27,-126 607.27,-122 505.73,-122 505.73,-86 634.27,-86 634.27,-122"/>
<text text-anchor="middle" x="570" y="-99.8" font-family="Times,serif" font-size="14.00">AppRoutingModule</text>
</g>
<!-- AppRoutingModule&#45;&gt;AppModule -->
<g id="edge15" class="edge">
<title>AppRoutingModule&#45;&gt;AppModule</title>
<path fill="none" stroke="black" d="M570,-122.31C570,-142.15 570,-171 570,-171 570,-171 1444.11,-171 1444.11,-171"/>
<polygon fill="black" stroke="black" points="1444.11,-174.5 1454.11,-171 1444.11,-167.5 1444.11,-174.5"/>
</g>
<!-- AuthInterceptor -->
<g id="node18" class="node">
<title>AuthInterceptor</title>
<ellipse fill="#fdb462" stroke="black" cx="409" cy="-104" rx="72.91" ry="18"/>
<text text-anchor="middle" x="409" y="-99.8" font-family="Times,serif" font-size="14.00">AuthInterceptor</text>
</g>
<!-- AuthInterceptor&#45;&gt;AppModule -->
<g id="edge17" class="edge">
<title>AuthInterceptor&#45;&gt;AppModule</title>
<path fill="none" stroke="black" d="M409,-122.28C409,-143.32 409,-175 409,-175 409,-175 1444.05,-175 1444.05,-175"/>
<polygon fill="black" stroke="black" points="1444.05,-178.5 1454.05,-175 1444.05,-171.5 1444.05,-178.5"/>
</g>
<!-- AuthService -->
<g id="node19" class="node">
<title>AuthService</title>
<ellipse fill="#fdb462" stroke="black" cx="259" cy="-104" rx="59.11" ry="18"/>
<text text-anchor="middle" x="259" y="-99.8" font-family="Times,serif" font-size="14.00">AuthService</text>
</g>
<!-- AuthService&#45;&gt;AppModule -->
<g id="edge18" class="edge">
<title>AuthService&#45;&gt;AppModule</title>
<path fill="none" stroke="black" d="M259,-122.16C259,-144.35 259,-179 259,-179 259,-179 1444.13,-179 1444.13,-179"/>
<polygon fill="black" stroke="black" points="1444.13,-182.5 1454.13,-179 1444.13,-175.5 1444.13,-182.5"/>
</g>
<!-- UserStoreService -->
<g id="node20" class="node">
<title>UserStoreService</title>
<ellipse fill="#fdb462" stroke="black" cx="103" cy="-104" rx="78.7" ry="18"/>
<text text-anchor="middle" x="103" y="-99.8" font-family="Times,serif" font-size="14.00">UserStoreService</text>
</g>
<!-- UserStoreService&#45;&gt;AppModule -->
<g id="edge19" class="edge">
<title>UserStoreService&#45;&gt;AppModule</title>
<path fill="none" stroke="black" d="M103,-122.32C103,-145.66 103,-183 103,-183 103,-183 1444.31,-183 1444.31,-183"/>
<polygon fill="black" stroke="black" points="1444.31,-186.5 1454.31,-183 1444.31,-179.5 1444.31,-186.5"/>
</g>
</g>
</svg>
